<?xml version="1.0" encoding="UTF-8"?>
<svg id="Layer_2" data-name="Layer 2" xmlns="http://www.w3.org/2000/svg" xmlns:xlink="http://www.w3.org/1999/xlink" viewBox="0 0 500 522.13">
  <defs>
    <style>
      .cls-1 {
        fill: #0066a4;
      }

      .cls-2 {
        fill: #00c9e9;
      }

      .cls-3 {
        fill: #1ee0f4;
      }

      .cls-4 {
        fill: url(#linear-gradient);
      }
    </style>
    <linearGradient id="linear-gradient" x1="147.98" y1="340.01" x2="308.42" y2="78.57" gradientUnits="userSpaceOnUse">
      <stop offset=".06" stop-color="#0066a4"/>
      <stop offset=".17" stop-color="#0681b5"/>
      <stop offset=".33" stop-color="#0fa3cc"/>
      <stop offset=".49" stop-color="#15bddd"/>
      <stop offset=".65" stop-color="#1ad0ea"/>
      <stop offset=".82" stop-color="#1ddcf1"/>
      <stop offset="1" stop-color="#1ee0f4"/>
    </linearGradient>
  </defs>
  <g id="Layer_1-2" data-name="Layer 1">
    <g>
      <path class="cls-2" d="M408.11,149.88l-107.06,98.82,107.06,98.82c59.09-54.64,59.09-143.01,0-197.65Z"/>
      <path class="cls-1" d="M282.75,260.57l-.04,.04-119.96-110.73c-66.23,61.23-66.23,160.25-.04,221.5l-.08,.07c66.41,61.2,173.83,61.2,240.24,0l-120.12-110.87Z"/>
      <path class="cls-3" d="M208.81,158.73l77.84,71.85,77.84-71.85c-43.04-39.66-112.64-39.66-155.68,0Z"/>
      <path class="cls-4" d="M392.32,19.47c10.09,12.83,18.66,26.39,25.55,40.39l11.07,22.51-26.57,3.14c-15.24,1.79-29.9,5.13-43.46,9.99-17.69-6.9-36.72-11.45-56.64-13.24,12.64-8.18,26.5-15.03,41.3-20.41,8.47-3.07,17.28-5.67,26.31-7.75-4.32-6.52-9.08-12.88-14.27-19.02-10.17-11.98-22.01-23.25-35.26-33.46,25.19,3.02,49.33,9.12,71.98,17.85Zm-86,6.03l20.85,15.52-22.25,13.8c-12.81,7.95-24.27,17.02-34.1,26.95-20.04,1.16-39.26,5.13-57.2,11.49,11.53-19.58,27.52-37.59,46.98-53.06-20.8-11.96-44.46-20.99-69.67-26.61C214.03,6.23,238.5,1.57,263.85,0c15.26,7.28,29.51,15.84,42.47,25.49Zm-166.76,9.99c17.18,.22,34.1,1.99,50.35,5.31l26.14,5.33-13.2,21.5c-7.62,12.34-13.44,25.18-17.42,38.12-17.01,9.16-32.4,20.63-45.57,33.96,.82-22.33,6.38-45.05,16.28-66.93-24.36-2.08-49.84-.4-75.11,5.02,17.35-16.37,37.03-30.62,58.53-42.31Zm-21.84,85.7c-.83,14.22,.17,28.11,2.91,41.33v.02c-10.68,14.94-18.95,31.45-24.39,49.05-10.07-20.25-16.09-42.85-17.81-66.48-22.79,8.15-44.82,20.2-64.82,35.5,7.69-22.13,18.52-42.96,31.98-62.07,15.48-6.9,31.43-12.27,47.59-16.02l25.97-6.03-1.43,24.68Zm-60.89,60.37l-20.29,16.13c-12.55,9.99-24.24,21.41-34.8,34-1.16,9.56-1.75,19.29-1.75,29.14,0,13.44,1.09,26.66,3.2,39.56,7.04-14.69,15.46-28.31,25.04-40.54,4.97-6.34,10.27-12.36,15.82-18.03,4.68,7.39,9.83,14.45,15.41,21.12,9.66,11.63,20.65,22.06,32.69,31.02-2.18-10.73-3.32-21.82-3.32-33.13,0-7.08,.44-14.07,1.31-20.94-8.91-10.8-16.48-22.82-22.59-35.68l-10.73-22.65Zm6.07,117.66c11.77,9.09,24.39,16.69,37.47,22.6,6.75,17.23,16.26,33.2,28.05,47.51-23.71-4.79-46.91-13.91-68.38-26.77-6.58,21.71-9.37,45.18-8.13,69.17-14.24-18.59-25.94-38.97-34.6-60.72,3.3-15.63,8.23-30.69,14.71-44.89l10.36-22.78,20.53,15.88Zm41.91,86.84c14.97,3.29,29.95,4.91,44.51,4.79,14.15,12.43,30.31,22.89,48,30.96-23.44,5.49-48.63,6.92-74.11,4.23,4.61,22.2,13.47,44.33,26.18,65.23-22.06-10.93-42.37-24.48-60.43-40.21-4.54-15.3-7.4-30.75-8.47-46.08l-1.75-24.68,26.06,5.76Zm178.44,54.18c.34,0,.7,0,1.04-.02-18.42,14.65-40.23,26.32-64.19,34.45,14.83,17.78,33.49,33.91,55.04,47.46-25.46-.65-50.06-4.41-73.41-10.91-11.55-11.83-21.65-24.48-30.04-37.7l-13.52-21.32,26.06-5.64c14.92-3.23,29.07-8,42.08-14.13,18.01,5.08,37.13,7.82,56.93,7.82Z"/>
      <path class="cls-1" d="M446.26,163.05c19.84,28.12,31.36,61.7,31.36,97.77,0,79.97-56.68,147.68-134.95,170.85-14.11,26.8-67.53,47.21-67.53,47.21,12.06,19.09,45.84,30.22,62.36,35.42,93.7-25.36,162.51-109.5,162.51-209.44,0-54.17-20.26-103.75-53.74-141.8Z"/>
    </g>
  </g>
</svg>